<?xml version="1.0" standalone="no"?>
<!DOCTYPE svg PUBLIC "-//W3C//DTD SVG 20010904//EN"
 "http://www.w3.org/TR/2001/REC-SVG-20010904/DTD/svg10.dtd">
<svg version="1.0" xmlns="http://www.w3.org/2000/svg"
 width="500.000000pt" height="500.000000pt" viewBox="0 0 500.000000 500.000000"
 preserveAspectRatio="xMidYMid meet">

<g transform="translate(0.000000,500.000000) scale(0.100000,-0.100000)"
fill="#000000" stroke="none">
<path d="M0 2500 l0 -2500 2500 0 2500 0 0 2500 0 2500 -2500 0 -2500 0 0
-2500z m3090 1282 c17 -14 23 -29 23 -60 0 -23 -5 -48 -11 -55 -8 -10 -9 -31
-2 -73 13 -77 13 -74 -9 -74 -16 0 -21 9 -26 48 -10 76 -19 82 -23 15 -3 -55
-6 -63 -22 -63 -18 0 -20 7 -20 58 0 31 3 94 7 140 6 81 6 82 33 82 15 0 38
-8 50 -18z m-215 -32 c-3 -6 -15 -10 -27 -10 -16 0 -19 -5 -14 -22 3 -13 6
-29 6 -35 0 -7 11 -13 25 -13 18 0 25 -5 25 -20 0 -10 -7 -23 -15 -27 -11 -7
-14 -18 -9 -42 6 -30 10 -32 34 -27 22 4 29 1 33 -14 4 -16 -2 -22 -31 -30
-21 -5 -42 -10 -47 -10 -6 0 -24 53 -40 118 -15 64 -30 124 -32 133 -6 21 78
42 90 22 4 -7 5 -18 2 -23z m448 -5 c21 -9 -32 -268 -56 -273 -13 -3 -17 4
-17 31 0 44 -26 57 -42 22 -11 -25 -32 -33 -42 -16 -8 13 116 240 131 241 6 0
18 -2 26 -5z m-610 -156 c55 -90 66 -114 56 -125 -10 -13 -21 -6 -71 43 -32
31 -58 54 -58 50 0 -3 16 -31 35 -61 39 -61 42 -71 21 -79 -10 -4 -33 25 -73
91 -90 148 -86 141 -68 148 11 4 30 -6 53 -28 20 -19 46 -41 57 -49 19 -14 11
3 -42 87 -13 21 -9 34 12 34 6 0 41 -50 78 -111z m823 38 c37 -29 40 -35 29
-51 -8 -11 -15 -13 -20 -7 -3 6 -10 11 -15 11 -7 0 -107 -123 -142 -174 -5 -7
-12 -6 -22 4 -14 14 -8 25 54 105 60 79 67 92 54 106 -10 12 -11 18 -2 27 16
16 18 16 64 -21z m-1089 -88 c9 -9 8 -17 -3 -34 -14 -21 -13 -24 14 -44 21
-15 32 -17 40 -9 18 18 46 -10 30 -30 -10 -12 -7 -18 17 -38 27 -21 31 -22 47
-8 17 16 38 12 38 -9 0 -6 -12 -23 -26 -38 l-27 -28 -102 91 -103 91 26 34
c30 37 33 38 49 22z m1249 -74 c22 -30 24 -37 13 -51 -12 -15 -15 -14 -31 6
-17 21 -18 21 -43 3 -16 -12 -24 -25 -20 -37 2 -11 -1 -26 -7 -33 -9 -11 -14
-11 -27 1 -15 14 -20 13 -46 -8 -29 -23 -29 -24 -12 -44 18 -20 18 -21 -1 -31
-16 -9 -23 -5 -45 26 l-26 36 47 37 c90 70 167 129 169 130 1 0 14 -16 29 -35z
m-1357 -126 c21 -7 31 -17 31 -31 0 -15 -5 -19 -17 -15 -10 2 -24 6 -32 8 -7
2 -15 -1 -18 -7 -4 -12 145 -84 174 -84 16 0 16 1 0 17 -9 10 -29 18 -45 19
-15 1 -30 3 -34 3 -12 1 -9 15 6 36 14 19 16 19 74 -9 48 -23 59 -32 52 -45
-5 -9 -11 -24 -14 -33 -11 -38 -39 -38 -122 -2 -43 18 -90 42 -104 52 -34 26
-38 65 -8 86 12 9 23 16 24 16 0 0 15 -5 33 -11z m1489 -205 c14 -10 22 -25
22 -45 0 -25 -6 -33 -36 -45 -30 -13 -38 -13 -45 -2 -13 20 -11 25 16 32 24 6
33 21 18 29 -15 8 -176 -28 -181 -40 -2 -9 7 -13 28 -13 25 0 31 -4 28 -17 -4
-22 -48 -29 -78 -13 -25 13 -27 62 -4 81 9 7 57 21 108 30 50 9 93 17 96 18 3
1 16 -6 28 -15z m-1220 -156 l3 -108 -174 0 c-194 0 -254 -8 -336 -46 -74 -33
-123 -83 -158 -158 -25 -56 -28 -71 -28 -176 0 -142 17 -198 82 -270 43 -48
125 -100 157 -100 7 0 17 11 20 25 17 67 51 140 92 195 l44 60 -85 0 -85 0 0
115 0 115 235 0 235 0 0 -44 0 -45 38 7 c20 4 127 7 237 7 l200 0 3 -242 2
-243 -120 0 -120 0 0 136 0 137 -87 -6 c-49 -3 -103 -11 -120 -17 l-33 -12 -2
-216 -3 -217 -104 -3 -103 -3 5 -37 c11 -65 58 -143 111 -183 86 -65 153 -80
379 -86 l198 -6 -3 -106 -3 -106 -190 0 c-147 1 -208 5 -270 19 -269 61 -417
206 -459 448 -6 37 -14 69 -17 72 -3 4 -33 13 -65 22 -106 27 -181 69 -253
141 -112 113 -155 231 -154 428 0 238 72 396 227 499 131 87 262 116 516 113
l185 -2 3 -107z m1122 -54 c72 -7 111 -19 122 -37 13 -20 9 -45 -9 -63 -14
-14 -29 -16 -97 -10 -117 10 -155 22 -162 51 -3 14 -4 32 0 40 7 18 44 35 66
30 8 -2 44 -7 80 -11z m-49 -205 c63 -27 117 -53 121 -57 4 -4 3 -13 -2 -21
-7 -12 -26 -6 -107 28 -54 24 -103 45 -110 48 -6 2 -14 -5 -18 -16 -4 -12 -15
-21 -27 -21 -15 0 -18 4 -13 18 4 9 12 29 17 45 5 15 14 27 18 27 4 0 59 -23
121 -51z m-85 -167 c89 -76 103 -109 61 -137 -31 -20 -48 -13 -122 48 -100 84
-113 107 -79 141 29 29 59 18 140 -52z m-154 -144 c36 -57 68 -108 72 -115 8
-14 -42 -43 -73 -43 -24 0 -71 54 -71 82 0 12 -21 45 -46 74 -38 45 -43 55
-29 60 11 5 31 -7 61 -37 52 -51 56 -45 13 17 -29 43 -31 64 -5 64 7 0 42 -46
78 -102z m-202 -18 c21 -38 -15 -56 -38 -20 -12 20 -32 19 -32 -1 0 -6 24 -36
54 -67 29 -31 56 -69 59 -83 8 -32 -16 -69 -45 -69 -24 0 -58 27 -58 45 0 19
30 27 36 10 7 -17 34 -20 34 -4 0 6 -24 36 -53 67 -30 31 -57 65 -60 75 -11
31 3 65 31 75 31 11 57 1 72 -28z"/>
<path d="M3050 3722 c0 -47 16 -56 26 -16 4 17 1 31 -10 42 -15 15 -16 13 -16
-26z"/>
<path d="M3259 3623 c-7 -16 -15 -31 -17 -35 -2 -5 3 -8 11 -8 8 0 17 13 21
32 8 41 3 45 -15 11z"/>
<path d="M3623 2888 c-9 -15 1 -18 96 -30 85 -10 114 -8 97 9 -11 11 -187 30
-193 21z"/>
<path d="M3480 2571 c0 -12 135 -124 147 -122 19 3 5 21 -58 75 -63 54 -89 67
-89 47z"/>
<path d="M3410 2342 c0 -20 36 -59 46 -49 7 7 -27 67 -38 67 -4 0 -8 -8 -8
-18z"/>
</g>
</svg>
